HIERARCHY
ROOT joint_Root
{
	OFFSET 0.0 0.0 0.0
	CHANNELS 6 Xposition Yposition Zposition Zrotation Xrotation Yrotation 
	JOINT Hips
	{
		OFFSET 4.5925 91.4895 -427.239
		CHANNELS 6 Xposition Yposition Zposition Zrotation Xrotation Yrotation 
		JOINT Spine
		{
			OFFSET 15.7357 0.0 0.0
			CHANNELS 6 Xposition Yposition Zposition Zrotation Xrotation Yrotation 
			JOINT Chest
			{
				OFFSET 8.98455 -0.406207 0.0
				CHANNELS 6 Xposition Yposition Zposition Zrotation Xrotation Yrotation 
				JOINT Neck
				{
					OFFSET 16.3773 0.0 0.0
					CHANNELS 6 Xposition Yposition Zposition Zrotation Xrotation Yrotation 
					JOINT Head
					{
						OFFSET 6.45672 0.0 0.0
						CHANNELS 6 Xposition Yposition Zposition Zrotation Xrotation Yrotation 
						End Site
						{
							OFFSET 0.0 0.0 0.0
						}
					}
				}
				JOINT Shoulder_L
				{
					OFFSET 12.9942 -0.242716 4.98039
					CHANNELS 6 Xposition Yposition Zposition Zrotation Xrotation Yrotation 
					JOINT UpperArm_L
					{
						OFFSET 5.34809 0.0 0.0
						CHANNELS 6 Xposition Yposition Zposition Zrotation Xrotation Yrotation 
						JOINT LowerArm_L
						{
							OFFSET 24.3286 1.87007e-05 0.0
							CHANNELS 6 Xposition Yposition Zposition Zrotation Xrotation Yrotation 
							JOINT Hand_L
							{
								OFFSET 22.2916 0.0 0.0
								CHANNELS 6 Xposition Yposition Zposition Zrotation Xrotation Yrotation 
								End Site
								{
									OFFSET 0.0 0.0 0.0
								}
							}
						}
					}
				}
				JOINT Shoulder_R
				{
					OFFSET 12.9945 -0.242716 -4.98039
					CHANNELS 6 Xposition Yposition Zposition Zrotation Xrotation Yrotation 
					JOINT UpperArm_R
					{
						OFFSET -5.34813 0.0 0.0
						CHANNELS 6 Xposition Yposition Zposition Zrotation Xrotation Yrotation 
						JOINT LowerArm_R
						{
							OFFSET -24.3289 0.000322201 0.0
							CHANNELS 6 Xposition Yposition Zposition Zrotation Xrotation Yrotation 
							JOINT Hand_R
							{
								OFFSET -22.2915 -0.000108084 0.0
								CHANNELS 6 Xposition Yposition Zposition Zrotation Xrotation Yrotation 
								End Site
								{
									OFFSET 0.0 0.0 0.0
								}
							}
						}
					}
				}
			}
		}
		JOINT UpperLeg_L
		{
			OFFSET -2.19248 -6.46944 0.0
			CHANNELS 6 Xposition Yposition Zposition Zrotation Xrotation Yrotation 
			JOINT LowerLeg_L
			{
				OFFSET 39.0811 0.0 -1.23785e-05
				CHANNELS 6 Xposition Yposition Zposition Zrotation Xrotation Yrotation 
				JOINT Foot_L
				{
					OFFSET 40.9854 0.0 -1.26872e-05
					CHANNELS 6 Xposition Yposition Zposition Zrotation Xrotation Yrotation 
					JOINT Toes_L
					{
						OFFSET 11.7543 0.0 0.0
						CHANNELS 6 Xposition Yposition Zposition Zrotation Xrotation Yrotation 
						End Site
						{
							OFFSET 0.0 0.0 0.0
						}
					}
				}
			}
		}
		JOINT UpperLeg_R
		{
			OFFSET -2.19251 6.46944 0.0
			CHANNELS 6 Xposition Yposition Zposition Zrotation Xrotation Yrotation 
			JOINT LowerLeg_R
			{
				OFFSET -39.0811 -0.00228153 -0.0401928
				CHANNELS 6 Xposition Yposition Zposition Zrotation Xrotation Yrotation 
				JOINT Foot_R
				{
					OFFSET -40.9854 0.0 0.0
					CHANNELS 6 Xposition Yposition Zposition Zrotation Xrotation Yrotation 
					JOINT Toes_R
					{
						OFFSET -11.7543 0.0 0.0
						CHANNELS 6 Xposition Yposition Zposition Zrotation Xrotation Yrotation 
						End Site
						{
							OFFSET 0.0 0.0 0.0
						}
					}
				}
			}
		}
	}
}
MOTION
Frames:	6
Frame Time:	0.0333333
0.000000 0.000000 0.000000 0.000000 0.000000 -0.000000 -3.080570 80.597400 -0.177913 87.584800 2.673560 12.624500 15.735700 0.000005 -0.000001 97.830700 79.576100 -100.554000 8.984550 -0.406207 -0.000000 12.968200 2.688550 -5.754110 16.377300 -0.000001 -0.000001 -2.554490 -8.150860 3.292090 6.456720 -0.000001 -0.000000 -1.190640 -13.510800 13.242800 12.994200 -0.242716 4.980390 -92.751700 6.615880 -67.356000 5.348090 -0.000007 -0.000001 -71.434400 10.874700 -0.733822 24.328600 0.000019 0.000005 -1.464390 -4.124910 -19.628400 22.291600 -0.000001 0.000005 19.227300 5.230080 1.954370 12.994500 -0.242716 -4.980390 88.854700 7.065870 -80.768800 -5.348130 -0.000001 -0.000004 -68.989800 33.836800 -0.564424 -24.328900 0.000322 -0.000009 -4.377300 -8.468220 -27.454200 -22.291500 -0.000108 -0.000004 18.579100 5.448660 -4.590250 -2.192480 -6.469440 -0.000000 -170.228000 -8.240760 -15.918300 39.081100 -0.000007 -0.000012 -0.568480 0.246972 66.519000 40.985400 -0.000006 -0.000013 1.452170 8.560090 -88.069500 11.754300 -0.000000 0.000003 -0.000352 -0.002976 -16.687800 -2.192510 6.469440 -0.000001 178.699000 15.686400 166.669000 -39.081100 -0.002282 -0.040193 0.120088 -0.052475 65.830800 -40.985400 0.000008 0.000006 7.645220 1.995980 -88.869800 -11.754300 -0.000006 -0.000006 -0.526081 -0.646086 -17.681800
0.000000 0.000000 0.000000 0.000000 0.000000 -0.000000 -1.228930 81.570800 0.292318 89.594400 -0.351758 12.191800 15.735700 0.000005 -0.000001 97.463500 80.410600 -99.159300 8.984550 -0.406207 -0.000000 11.296000 2.419640 -3.629750 16.377300 -0.000001 -0.000001 -2.278380 -7.824070 3.761750 6.456720 -0.000001 -0.000000 -0.484112 -12.173100 12.221100 12.994200 -0.242716 4.980390 -92.185500 5.229520 -67.280000 5.348090 -0.000007 -0.000001 -72.301700 7.506810 -0.027332 24.328600 0.000019 0.000005 -1.274830 -5.338440 -13.378000 22.291600 -0.000001 0.000005 16.666400 5.220650 2.202990 12.994500 -0.242716 -4.980390 88.840100 6.824530 -80.330000 -5.348130 -0.000001 -0.000004 -67.435100 32.340800 -1.416130 -24.328900 0.000322 -0.000009 -3.159760 -7.157890 -23.884000 -22.291500 -0.000108 -0.000004 17.664200 5.424980 -3.764880 -2.192480 -6.469440 -0.000000 -173.291000 -11.199000 -13.599800 39.081100 -0.000007 -0.000012 -0.491153 0.245805 63.414700 40.985400 -0.000006 -0.000013 2.146860 7.051340 -87.424000 11.754300 -0.000000 0.000003 -0.000361 -0.003036 -16.689900 -2.192510 6.469440 -0.000001 175.386000 13.507800 167.297000 -39.081100 -0.002282 -0.040193 0.096736 -0.045943 63.846700 -40.985400 0.000008 0.000006 7.225130 4.386950 -87.956200 -11.754300 -0.000006 -0.000006 -0.434024 -0.535915 -17.658000
0.000000 0.000000 0.000000 0.000000 0.000000 -0.000000 0.510721 83.330500 0.795789 91.279900 -3.309850 11.348900 15.735700 0.000005 -0.000001 97.549700 81.595500 -97.725600 8.984550 -0.406207 -0.000000 8.905560 2.195360 -0.522532 16.377300 -0.000001 -0.000001 -0.862950 -7.028890 3.688910 6.456720 -0.000001 -0.000000 0.001589 -10.408900 9.715460 12.994200 -0.242716 4.980390 -91.256200 2.969210 -67.055500 5.348090 -0.000007 -0.000001 -68.584300 0.787353 -2.274160 24.328600 0.000019 0.000005 0.030436 0.224239 -7.851310 22.291600 -0.000001 0.000005 14.689700 5.191010 2.941640 12.994500 -0.242716 -4.980390 88.905800 5.914690 -79.498400 -5.348130 -0.000001 -0.000004 -66.561500 28.862900 -1.218290 -24.328900 0.000322 -0.000009 -2.412330 -6.181980 -21.357800 -22.291500 -0.000108 -0.000004 17.516900 5.406910 -3.164640 -2.192480 -6.469440 -0.000000 -176.219000 -13.677200 -10.919200 39.081100 -0.000007 -0.000012 -0.430034 0.270709 57.810300 40.985400 -0.000006 -0.000013 2.519110 5.475850 -85.413200 11.754300 -0.000000 0.000003 -0.000369 -0.003093 -16.691900 -2.192510 6.469440 -0.000001 172.649000 11.568600 168.325000 -39.081100 -0.002282 -0.040193 0.069770 -0.039390 59.385300 -40.985400 0.000008 0.000006 6.437660 6.922180 -85.570900 -11.754300 -0.000006 -0.000006 -0.382341 -0.474699 -17.716700
0.000000 0.000000 0.000000 0.000000 0.000000 -0.000000 1.917030 85.408200 1.327620 92.462500 -5.825420 10.442200 15.735700 0.000005 -0.000001 98.013400 82.696500 -96.359800 8.984550 -0.406207 -0.000000 6.674450 2.014080 3.186380 16.377300 -0.000001 -0.000001 1.132710 -6.472910 3.333980 6.456720 -0.000001 -0.000000 0.057393 -8.796330 5.875290 12.994200 -0.242716 4.980390 -90.291800 0.698788 -67.333200 5.348090 -0.000007 -0.000001 -60.521000 -10.921700 -5.677670 24.328600 0.000019 0.000005 -0.335829 -2.465880 -7.733210 22.291600 -0.000001 0.000005 17.233400 5.142740 4.111110 12.994500 -0.242716 -4.980390 89.019600 4.769350 -78.368300 -5.348130 -0.000001 -0.000004 -65.155500 25.429200 -0.829617 -24.328900 0.000322 -0.000009 -2.673300 -7.177620 -20.483500 -22.291500 -0.000108 -0.000004 17.454200 5.401460 -2.985510 -2.192480 -6.469440 -0.000000 -178.535000 -15.541900 -7.874970 39.081100 -0.000007 -0.000012 -0.345520 0.283304 50.651200 40.985400 -0.000006 -0.000013 2.698090 4.244820 -82.490600 11.754300 -0.000000 0.000003 -0.000263 -0.002329 -16.664700 -2.192510 6.469440 -0.000001 170.786000 10.009900 169.998000 -39.081100 -0.002282 -0.040193 0.048011 -0.033399 53.280600 -40.985400 0.000008 0.000006 5.684730 8.805500 -82.494100 -11.754300 -0.000006 -0.000006 -0.119604 -0.167484 -17.848400
0.000000 0.000000 0.000000 0.000000 0.000000 -0.000000 2.870960 87.263400 1.729650 93.393900 -7.547000 9.501580 15.735700 0.000005 -0.000001 98.637400 83.619600 -95.466000 8.984550 -0.406207 -0.000000 4.809160 1.831130 6.258790 16.377300 -0.000001 -0.000001 3.122730 -6.198050 4.056230 6.456720 -0.000001 -0.000000 0.387460 -8.039070 1.999370 12.994200 -0.242716 4.980390 -89.365100 -1.552550 -67.742800 5.348090 -0.000007 -0.000001 -49.051500 -22.015300 -11.376700 24.328600 0.000019 0.000005 -1.121650 -5.793130 -10.965700 22.291600 -0.000001 0.000005 17.195400 5.131430 4.382430 12.994500 -0.242716 -4.980390 88.979000 4.554190 -77.349600 -5.348130 -0.000001 -0.000004 -62.576700 23.660900 -0.196313 -24.328900 0.000322 -0.000009 -3.472540 -9.070380 -21.046300 -22.291500 -0.000108 -0.000004 16.486500 5.411220 -3.307400 -2.192480 -6.469440 -0.000000 179.725000 -16.957300 -5.101310 39.081100 -0.000007 -0.000012 -0.229533 0.242692 43.404500 40.985400 -0.000006 -0.000013 2.872070 3.842730 -79.290500 11.754300 -0.000000 0.000003 -0.000194 -0.001808 -16.645800 -2.192510 6.469440 -0.000001 169.500000 9.244280 171.658000 -39.081100 -0.002282 -0.040193 0.034803 -0.029186 47.225200 -40.985400 0.000008 0.000006 5.101570 10.051400 -79.395300 -11.754300 -0.000006 -0.000006 -0.003019 -0.040821 -18.233200
0.000000 0.000000 0.000000 0.000000 0.000000 -0.000000 3.319620 88.540000 1.953890 93.778700 -7.727150 8.684480 15.735700 0.000005 -0.000001 96.876200 84.369700 -92.744700 8.984550 -0.406207 -0.000000 3.384760 1.189090 8.219130 16.377300 -0.000001 -0.000001 4.802270 -6.265220 4.895040 6.456720 -0.000001 -0.000000 0.992217 -7.961940 0.668951 12.994200 -0.242716 4.980390 -88.241700 -4.542480 -68.801500 5.348090 -0.000007 -0.000001 -34.513300 -30.162100 -17.719500 24.328600 0.000019 0.000005 -2.474490 -9.602900 -14.500700 22.291600 -0.000001 0.000005 15.725200 5.192300 2.890420 12.994500 -0.242716 -4.980390 88.686500 5.391220 -76.287400 -5.348130 -0.000001 -0.000004 -59.225700 23.973400 0.213103 -24.328900 0.000322 -0.000009 -3.557740 -9.022380 -21.621300 -22.291500 -0.000108 -0.000004 15.200000 5.412460 -3.346530 -2.192480 -6.469440 -0.000000 178.933000 -17.480200 -3.109820 39.081100 -0.000007 -0.000012 -0.126393 0.162610 37.857700 40.985400 -0.000006 -0.000013 3.088180 4.445300 -76.719000 11.754300 -0.000000 0.000003 -0.000108 -0.001097 -16.619600 -2.192510 6.469440 -0.000001 168.913000 9.741760 173.179000 -39.081100 -0.002282 -0.040193 0.030741 -0.029974 42.504100 -40.985400 0.000008 0.000006 4.871560 10.692300 -77.108900 -11.754300 -0.000006 -0.000006 -0.003450 -0.045594 -18.427500
